<?xml version="1.0" encoding="UTF-8"?>
<svg width="80px" height="80px" viewBox="0 0 80 80" version="1.1" xmlns="http://www.w3.org/2000/svg" xmlns:xlink="http://www.w3.org/1999/xlink">
    <title>形状结合</title>
    <defs>
        <rect id="path-1" x="0" y="0" width="80" height="80"></rect>
        <linearGradient x1="94.1931373%" y1="50%" x2="12.7422195%" y2="0%" id="linearGradient-3">
            <stop stop-color="#EE396B" offset="0%"></stop>
            <stop stop-color="#EE396B" offset="48.5420914%"></stop>
            <stop stop-color="#FF6590" offset="100%"></stop>
        </linearGradient>
        <path d="M39.8523614,45.6881343 C41.2809399,45.6844097 42.5764368,46.5277424 43.1508336,47.8358965 L43.1508336,47.8358965 L51.5640293,66.9487851 C52.0528392,68.069974 51.9591758,69.3436522 51.2928031,70.3659942 C50.6260689,71.3877335 49.4954775,71.9999907 48.275924,71.9999907 L48.275924,71.9999907 L31.4438669,71.9999907 C30.2261215,72.0027539 29.0899851,71.3873718 28.4269877,70.3659942 C27.760615,69.3436522 27.6518835,68.0647906 28.1453946,66.9487851 L28.1453946,66.9487851 L36.5590725,47.8358965 C37.1321434,46.5324437 38.425591,45.6881343 39.8523614,45.6881343 Z M40.084531,8 C56.6745337,8 70.1736427,21.4939255 70.1689427,38.0844104 C70.1689427,49.1147582 64.1944912,58.7724603 55.3169562,64.0109835 L55.3169562,64.0109835 L50.5324054,53.1436125 C55.2971868,49.8257325 58.4224359,44.315501 58.4224359,38.0844104 C58.4224359,27.9722538 50.1965671,19.7465055 40.084531,19.7465055 C29.9723743,19.7465055 21.746626,27.9722538 21.746626,38.0844104 C21.746626,44.1573459 24.7140818,49.5493229 29.2764682,52.8869722 L29.2764682,52.8869722 L24.4720275,63.793882 C15.8017093,58.5106366 10,48.9616661 10,38.0844104 C10,21.4939255 23.4945282,8 40.084531,8 Z M40.084531,24.3677178 C47.6487284,24.3677178 53.8007414,30.5197308 53.8007414,38.0844104 C53.8007414,42.4193284 51.7764296,46.2903893 48.6262277,48.8035111 L48.6262277,48.8035111 L47.3822035,45.974441 C46.0688659,42.9872158 43.1112949,41.0617509 39.8523614,41.0617509 C36.59391,41.0617509 33.636339,42.9919171 32.3225192,45.974441 L32.3225192,45.974441 L31.2018126,48.5224002 C28.2494249,46.004095 26.3730218,42.2615351 26.3683205,38.0844104 C26.3683205,30.5197308 32.5203335,24.3677178 40.084531,24.3677178 Z" id="path-4"></path>
        <filter x="-10.0%" y="-9.4%" width="119.9%" height="118.7%" filterUnits="objectBoundingBox" id="filter-5">
            <feOffset dx="0" dy="0" in="SourceAlpha" result="shadowOffsetOuter1"></feOffset>
            <feGaussianBlur stdDeviation="2" in="shadowOffsetOuter1" result="shadowBlurOuter1"></feGaussianBlur>
            <feColorMatrix values="0 0 0 0 0.964705882   0 0 0 0 0.305882353   0 0 0 0 0.490196078  0 0 0 0.155594406 0" type="matrix" in="shadowBlurOuter1"></feColorMatrix>
        </filter>
    </defs>
    <g id="PC" stroke="none" stroke-width="1" fill="none" fill-rule="evenodd">
        <g id="产品__-插件_Lighttpd-串流" transform="translate(-350.000000, -678.000000)">
            <g id="编组-13备份-2" transform="translate(350.000000, 647.000000)">
                <g id="形状结合" transform="translate(0.000000, 31.000000)">
                    <mask id="mask-2" fill="white">
                        <use xlink:href="#path-1"></use>
                    </mask>
                    <g id="蒙版"></g>
                    <g opacity="0.7" mask="url(#mask-2)">
                        <use fill="black" fill-opacity="1" filter="url(#filter-5)" xlink:href="#path-4"></use>
                        <use fill="url(#linearGradient-3)" fill-rule="evenodd" xlink:href="#path-4"></use>
                    </g>
                </g>
            </g>
        </g>
    </g>
</svg>