<?xml version="1.0" encoding="UTF-8"?>
<svg width="34px" height="34px" viewBox="0 0 34 34" version="1.1" xmlns="http://www.w3.org/2000/svg" xmlns:xlink="http://www.w3.org/1999/xlink">
    <title>形状结合</title>
    <defs>
        <rect id="path-1" x="0" y="0" width="34" height="34"></rect>
        <linearGradient x1="100%" y1="50%" x2="7.84664451%" y2="0%" id="linearGradient-3">
            <stop stop-color="#EE396B" offset="0%"></stop>
            <stop stop-color="#EE396B" offset="48.5420914%"></stop>
            <stop stop-color="#FF6590" offset="100%"></stop>
        </linearGradient>
        <path d="M26.8420869,0 C27.0794898,0 27.3069755,0.0941922651 27.4749138,0.262130608 C27.6426774,0.429894197 27.7368697,0.657379876 27.7368697,0.894739141 L27.736,1.342 L29.9736739,1.34206502 C31.4561972,1.34206502 32.6579787,2.54384648 32.6579787,4.02632614 L32.657,6.263 L33.1054356,6.2631303 C33.3426201,6.2631303 33.5702806,6.35754101 33.7380441,6.52526091 C33.9058077,6.6930245 34,6.92068493 34,7.15791313 C34,7.3952724 33.9058077,7.62275808 33.7380441,7.79052167 C33.5702806,7.95846001 33.3426201,8.05265227 33.1054356,8.05265227 L32.657,8.052 L32.657,15.657 L33.1054356,15.6578476 C33.3426201,15.6578476 33.5702806,15.7522583 33.7380441,15.9199782 C33.9058077,16.0877418 34,16.3154022 34,16.5526304 C34,16.7900334 33.9058077,17.0175191 33.7380441,17.1854137 C33.5702806,17.3531773 33.3426201,17.4473696 33.1054356,17.4473696 L32.657,17.447 L32.657,26.394 L33.1054356,26.3948047 C33.3426201,26.3948047 33.5702806,26.4889969 33.7380441,26.6569353 C33.9058077,26.8246989 34,27.0521846 34,27.2895875 C34,27.526772 33.9058077,27.7544324 33.7380441,27.922196 C33.5702806,28.0899596 33.3426201,28.1843266 33.1054356,28.1843266 L32.657,28.184 L32.6579787,29.9736739 C32.6579787,31.4561972 31.4561972,32.6579787 29.9736739,32.6579787 L27.736,32.657 L27.7368697,33.1054356 C27.7368697,33.5994644 27.3363341,34 26.8420869,34 C26.348058,34 25.9475225,33.5994644 25.9475225,33.1054356 L25.947,32.657 L17,32.657 L17.0000874,33.1054356 C17.0000874,33.4250602 16.8294404,33.7203066 16.5526304,33.8802063 C16.2758205,34.040106 15.9348323,34.040106 15.6578476,33.8802063 C15.3810377,33.7203066 15.2105654,33.4250602 15.2105654,33.1054356 L15.21,32.657 L7.605,32.657 L7.60519533,33.1054356 C7.60519533,33.4250602 7.43472305,33.7203066 7.15791313,33.8802063 C6.88110321,34.040106 6.53994022,34.040106 6.2631303,33.8802063 C5.98632038,33.7203066 5.81584811,33.4250602 5.81584811,33.1054356 L5.815,32.657 L4.02632614,32.6579787 C2.54384648,32.6579787 1.34206502,31.4561972 1.34206502,29.9736739 L1.342,28.184 L0.894739141,28.1843266 C0.400535569,28.1843266 0,27.7836163 0,27.2895875 C0,26.7953402 0.400535569,26.3948047 0.894739141,26.3948047 L1.342,26.394 L1.342,17.447 L0.894739141,17.4473696 C0.575114554,17.4473696 0.279693359,17.2768973 0.119793688,17.0000874 C-0.0399312293,16.7232775 -0.0399312293,16.3821582 0.119793688,16.1053482 C0.279693359,15.8285383 0.575114554,15.6578476 0.894739141,15.6578476 L1.342,15.657 L1.342,8.052 L0.894739141,8.05265227 C0.575114554,8.05265227 0.279693359,7.88218 0.119793688,7.60519533 C-0.0399312293,7.3283854 -0.0399312293,6.98744086 0.119793688,6.71063094 C0.279693359,6.43364626 0.575114554,6.2631303 0.894739141,6.2631303 L1.342,6.263 L1.34206502,4.02632614 C1.34206502,2.54384648 2.54384648,1.34206502 4.02632614,1.34206502 L5.815,1.342 L5.81584811,0.894739141 C5.81584811,0.400535569 6.21638368,0 6.71063094,0 C7.20465976,0 7.60519533,0.400535569 7.60519533,0.894739141 L7.605,1.342 L15.21,1.342 L15.2105654,0.894739141 C15.2105654,0.657379876 15.3047577,0.429894197 15.472696,0.262130608 C15.6404596,0.0941922651 15.8679453,0 16.1053482,0 C16.3425327,0 16.5701932,0.0941922651 16.7379568,0.262130608 C16.9057204,0.429894197 17.0000874,0.657379876 17.0000874,0.894739141 L17,1.342 L25.947,1.342 L25.9475225,0.894739141 C25.9475225,0.657379876 26.0417147,0.429894197 26.2094783,0.262130608 C26.3772419,0.0941922651 26.6049024,0 26.8420869,0 Z M24.1580005,7.15791313 L9.84217424,7.15791313 C8.35969459,7.15791313 7.15791313,8.35969459 7.15791313,9.84217424 L7.15791313,24.1580005 C7.15791313,25.6403491 8.35969459,26.8420869 9.84217424,26.8420869 L24.1580005,26.8420869 C25.6403491,26.8420869 26.8420869,25.6403491 26.8420869,24.1580005 L26.8420869,9.84217424 C26.8420869,8.35969459 25.6403491,7.15791313 24.1580005,7.15791313 Z M20.5789566,10.7369571 C22.3684785,10.7369571 23.2632177,11.6315215 23.2632177,13.4210434 L23.2632177,20.5789566 C23.2632177,22.3684785 22.3684785,23.2632177 20.5789566,23.2632177 L13.4210434,23.2632177 C11.6315215,23.2632177 10.7369571,22.3684785 10.7369571,20.5789566 L10.7369571,13.4210434 C10.7369571,11.6315215 11.6315215,10.7369571 13.4210434,10.7369571 L20.5789566,10.7369571 Z" id="path-4"></path>
        <filter x="-17.6%" y="-17.6%" width="135.3%" height="135.3%" filterUnits="objectBoundingBox" id="filter-5">
            <feOffset dx="0" dy="0" in="SourceAlpha" result="shadowOffsetOuter1"></feOffset>
            <feGaussianBlur stdDeviation="2" in="shadowOffsetOuter1" result="shadowBlurOuter1"></feGaussianBlur>
            <feColorMatrix values="0 0 0 0 0.964705882   0 0 0 0 0.305882353   0 0 0 0 0.490196078  0 0 0 0.155594406 0" type="matrix" in="shadowBlurOuter1"></feColorMatrix>
        </filter>
    </defs>
    <g id="PC" stroke="none" stroke-width="1" fill="none" fill-rule="evenodd">
        <g id="产品__插件_海量视频嵌入器插件" transform="translate(-1010.000000, -549.000000)">
            <g id="编组-8" transform="translate(970.000000, 521.000000)">
                <g id="形状结合" transform="translate(40.000000, 28.000000)">
                    <mask id="mask-2" fill="white">
                        <use xlink:href="#path-1"></use>
                    </mask>
                    <g id="蒙版"></g>
                    <g opacity="0.7" mask="url(#mask-2)">
                        <use fill="black" fill-opacity="1" filter="url(#filter-5)" xlink:href="#path-4"></use>
                        <use fill="url(#linearGradient-3)" fill-rule="evenodd" xlink:href="#path-4"></use>
                    </g>
                </g>
            </g>
        </g>
    </g>
</svg>