<?xml version="1.0" encoding="UTF-8"?>
<svg width="72px" height="72px" viewBox="0 0 72 72" version="1.1" xmlns="http://www.w3.org/2000/svg" xmlns:xlink="http://www.w3.org/1999/xlink">
    <title>编组 34</title>
    <defs>
        <linearGradient x1="84.7219575%" y1="50%" x2="20.7270597%" y2="0%" id="linearGradient-1">
            <stop stop-color="#EE396B" offset="0%"></stop>
            <stop stop-color="#EE396B" offset="48.5420914%"></stop>
            <stop stop-color="#FF6590" offset="100%"></stop>
        </linearGradient>
    </defs>
    <g id="PC" stroke="none" stroke-width="1" fill="none" fill-rule="evenodd">
        <g id="首页" transform="translate(-970.000000, -2474.000000)">
            <g id="编组-20备份-2" transform="translate(970.000000, 2444.000000)">
                <g id="编组-34" transform="translate(0.000000, 30.000000)">
                    <rect id="矩形" x="0" y="0" width="72" height="72"></rect>
                    <g id="定制" opacity="0.7" transform="translate(6.000000, 0.000000)" fill="#EE396B" fill-rule="nonzero">
                        <path d="M55.1998387,0 L34.7998904,0 C32.1488795,0 29.9999578,2.14906613 29.9999578,4.80000482 L29.9999578,11.9999398 L41.9998976,11.9999398 L41.9998976,17.9998736 L29.9999578,17.9998736 L29.9999578,25.9999298 L41.9998976,25.9999298 L41.9998976,31.9998636 L29.9999578,31.9998636 L29.9999578,39.9999198 L41.9998976,39.9999198 L41.9998976,45.9998536 L29.9999578,45.9998535 L29.9999578,67.1999229 C29.9999578,69.8507171 32.1488795,71.9998555 34.7998904,71.9998555 L55.1998387,71.9998555 C57.8507774,71.9998555 59.9997713,69.8507171 59.9997713,67.1999229 L59.9997713,4.80000482 C59.9997713,2.14906613 57.8507773,0 55.1998387,0 Z M45.000009,63.9999438 C42.2386266,63.9999438 39.9999197,61.7615258 39.9999197,59.0001435 C39.9999197,56.2386166 42.2385543,54.0000542 45.000009,54.0000542 C47.7613914,54.0000542 49.9999538,56.2385444 49.9999538,59.0001435 C49.9999538,61.7614536 47.7613192,63.9999438 45.000009,63.9999438 Z" id="形状"></path>
                        <polygon id="路径" points="0 21.9999739 19.999996 21.9999739 19.999996 58.00001 1.01948288e-15 58.00001"></polygon>
                        <path d="M0,63.9999438 L0,67.2000674 C0,69.8508616 2.14913837,72 4.80000482,72 L15.1999911,72 C17.8509298,72 20,69.8508616 20,67.2000674 L20,63.9999438 L0,63.9999438 Z" id="路径"></path>
                        <polygon id="路径" points="0 15.9999679 9.99996186 0 19.9999237 15.9999679"></polygon>
                    </g>
                </g>
            </g>
        </g>
    </g>
</svg>