<?xml version="1.0" encoding="UTF-8"?>
<svg width="72px" height="72px" viewBox="0 0 72 72" version="1.1" xmlns="http://www.w3.org/2000/svg" xmlns:xlink="http://www.w3.org/1999/xlink">
    <title>编组 32</title>
    <defs>
        <linearGradient x1="100%" y1="50%" x2="7.84664451%" y2="12.9684962%" id="linearGradient-1">
            <stop stop-color="#EE396B" offset="0%"></stop>
            <stop stop-color="#EE396B" offset="48.5420914%"></stop>
            <stop stop-color="#FF6590" offset="100%"></stop>
        </linearGradient>
    </defs>
    <g id="PC" stroke="none" stroke-width="1" fill="none" fill-rule="evenodd">
        <g id="首页" transform="translate(-970.000000, -2219.000000)">
            <g id="编组-20备份" transform="translate(970.000000, 2189.000000)">
                <g id="编组-32" transform="translate(0.000000, 30.000000)">
                    <rect id="矩形" x="0" y="0" width="72" height="72"></rect>
                    <g id="地球" opacity="0.7" transform="translate(1.000000, 6.000000)" fill="#EE396B" fill-rule="nonzero">
                        <path d="M65.7426457,26.4829476 C65.8787737,27.6504139 65.9466462,28.8248092 65.9466462,30.0001851 C65.9466462,46.5682252 52.5152409,60 35.9468306,60 C28.8220181,60 22.2773646,57.5160898 17.1314609,53.3672305 C25.7368454,51.6337877 35.1471219,48.1024812 44.4007888,42.8203309 L44.8558082,42.5593148 L45.6333028,42.1061465 C53.4704486,37.4926416 60.252423,32.1468107 65.6541594,26.574766 L65.743016,26.4829476 L65.7426457,26.4829476 Z M35.9468306,0 C41.8983668,0 47.4448653,1.73270229 52.109833,4.72198397 C60.5434282,2.9133834 66.9351744,3.65311399 69.0166385,7.33214447 C72.8426525,14.0944964 60.6519072,28.2289783 41.7872961,38.9021282 C22.9230553,49.5745377 4.52864342,52.7448645 0.702259204,45.9821423 C-1.23296192,42.561166 0.929583821,37.2545801 5.98107741,31.4637262 C5.95841461,30.9760844 5.94705767,30.4879829 5.94701574,29.9998149 C5.94701574,13.4321451 19.3784204,0 35.9468306,0 Z M6.79189323,37.0994514 L6.7374686,37.1764604 C4.44015713,40.4589686 3.73411797,42.88179 4.24874536,43.7914587 C4.7107993,44.6085685 6.72821272,45.2105715 10.0318244,45.1224554 C8.56728464,42.6199826 7.47580539,39.9171652 6.79189323,37.0994514 L6.79189323,37.0994514 Z M56.5530296,8.07668812 L56.4412185,8.09149754 C58.9554165,10.4433244 61.0475917,13.2089728 62.6267435,16.2681493 C65.2080256,12.7320297 66.0140284,10.10743 65.4738547,9.15222234 C64.8792565,8.10186414 61.7159641,7.40693204 56.5530296,8.07668812 L56.5530296,8.07668812 Z" id="形状"></path>
                    </g>
                </g>
            </g>
        </g>
    </g>
</svg>