<?xml version="1.0" encoding="UTF-8"?>
<svg width="34px" height="34px" viewBox="0 0 34 34" version="1.1" xmlns="http://www.w3.org/2000/svg" xmlns:xlink="http://www.w3.org/1999/xlink">
    <title>形状结合</title>
    <defs>
        <rect id="path-1" x="0" y="0" width="34" height="34"></rect>
        <linearGradient x1="100%" y1="50%" x2="7.84664451%" y2="0%" id="linearGradient-3">
            <stop stop-color="#EE396B" offset="0%"></stop>
            <stop stop-color="#EE396B" offset="48.5420914%"></stop>
            <stop stop-color="#FF6590" offset="100%"></stop>
        </linearGradient>
        <path d="M20.4000249,0 C21.6111975,0 22.6307385,0.767125936 23.0939783,1.93695741 L23.1624453,2.12496109 L27.6251167,2.12496109 C28.2200787,2.12496109 28.6298932,2.49525607 28.6818909,3.06294048 L28.6874935,3.18754539 L28.6874935,8.50005188 L30.8124546,8.50005188 C31.2021525,8.50005188 31.5916761,8.678646 31.6538905,9.03570637 L31.6624971,9.13751115 L33.7874582,13.3874748 C33.9763842,13.5764009 33.997376,13.9332611 33.8504336,14.1593892 L33.7874582,14.2374759 L31.6624971,18.4875641 C31.6624971,18.8771098 31.3054484,19.0881661 30.9184858,19.120637 L30.8124546,19.1250648 L30.3875371,19.1250648 C29.9980294,18.735405 29.7869763,18.1672556 29.918217,17.7479753 L29.9626196,17.637563 L31.8750389,13.8125584 L30.1749953,10.625013 L25.0750306,10.625013 L23.5875288,13.6000166 L25.4999481,17.4250213 C25.7125314,18.0624805 25.4999481,18.6999813 25.0750306,18.9125231 C24.4831041,19.1098833 23.8911419,18.9407174 23.639423,18.5752979 L23.5875288,18.4875641 L21.4625677,14.2374759 C21.2736417,14.0486974 21.2526499,13.6918536 21.3995924,13.4656107 L21.4625677,13.3874748 L23.5875288,9.13751115 C23.5875288,8.74800344 23.9446124,8.53695034 24.3315489,8.50447974 L24.4375713,8.50005188 L26.5625324,8.50005188 L26.5625324,4.24992218 L23.1624453,4.24992218 C22.9925447,4.41998879 22.8225378,4.72605557 22.6525097,4.950416 L22.524986,5.09996472 L12.1125148,15.5126019 C12.4902192,16.2680109 12.7001206,17.0235837 12.7421024,17.7791457 L12.7499741,18.0624805 L12.7499741,19.1250648 L19.1250648,25.4999481 L27.6251167,25.4999481 C29.8938695,25.4999481 31.7621759,27.3016829 31.8701137,29.5449646 L31.8750389,29.7500778 L31.8750389,31.8750389 L34,31.8750389 L34,34 L0,34 L0,31.8750389 L2.12496109,31.8750389 L2.12496109,29.7500778 C2.12496109,27.4812848 3.9266959,25.6128208 6.16997756,25.5048737 L6.37509079,25.4999481 L10.625013,25.4999481 L8.50005188,23.374987 L7.43746758,23.374987 C4.46250545,23.374987 2.12496109,21.0374842 2.12496109,18.0624805 C2.12496109,15.5922857 3.72041214,13.5207101 5.94526661,13.0072978 L6.16250752,12.9625158 L18.2750223,0.850001038 C18.9125231,0.212541763 19.5499824,0 20.4000249,0 Z M7.42920829,15.7798044 C6.16849815,15.7798044 5.14649066,16.8018119 5.14649066,18.062522 C5.14649066,19.3232322 6.16849815,20.3452397 7.42920829,20.3452397 C8.68991842,20.3452397 9.71192592,19.3232322 9.71192592,18.062522 C9.71192592,16.8018119 8.68991842,15.7798044 7.42920829,15.7798044 Z" id="path-4"></path>
        <filter x="-17.6%" y="-17.6%" width="135.3%" height="135.3%" filterUnits="objectBoundingBox" id="filter-5">
            <feOffset dx="0" dy="0" in="SourceAlpha" result="shadowOffsetOuter1"></feOffset>
            <feGaussianBlur stdDeviation="2" in="shadowOffsetOuter1" result="shadowBlurOuter1"></feGaussianBlur>
            <feColorMatrix values="0 0 0 0 0.964705882   0 0 0 0 0.305882353   0 0 0 0 0.490196078  0 0 0 0.155594406 0" type="matrix" in="shadowBlurOuter1"></feColorMatrix>
        </filter>
    </defs>
    <g id="PC" stroke="none" stroke-width="1" fill="none" fill-rule="evenodd">
        <g id="产品__插件_视频抓取插件" transform="translate(-1010.000000, -521.000000)">
            <g id="编组-18备份" transform="translate(970.000000, 493.000000)">
                <g id="形状结合" transform="translate(40.000000, 28.000000)">
                    <mask id="mask-2" fill="white">
                        <use xlink:href="#path-1"></use>
                    </mask>
                    <g id="蒙版"></g>
                    <g opacity="0.7" mask="url(#mask-2)">
                        <use fill="black" fill-opacity="1" filter="url(#filter-5)" xlink:href="#path-4"></use>
                        <use fill="url(#linearGradient-3)" fill-rule="evenodd" xlink:href="#path-4"></use>
                    </g>
                </g>
            </g>
        </g>
    </g>
</svg>