<?xml version="1.0" encoding="UTF-8"?>
<svg width="72px" height="72px" viewBox="0 0 72 72" version="1.1" xmlns="http://www.w3.org/2000/svg" xmlns:xlink="http://www.w3.org/1999/xlink">
    <title>编组 27</title>
    <defs>
        <linearGradient x1="86.2591402%" y1="50%" x2="19.4311114%" y2="0%" id="linearGradient-1">
            <stop stop-color="#EE396B" offset="0%"></stop>
            <stop stop-color="#EE396B" offset="48.5420914%"></stop>
            <stop stop-color="#FF6590" offset="100%"></stop>
        </linearGradient>
    </defs>
    <g id="PC" stroke="none" stroke-width="1" fill="none" fill-rule="evenodd">
        <g id="首页" transform="translate(-1363.000000, -952.000000)">
            <g id="编组-16" transform="translate(1189.000000, 922.000000)">
                <g id="编组-13" transform="translate(40.000000, 30.000000)">
                    <g id="编组-27" transform="translate(134.000000, 0.000000)">
                        <rect id="矩形" x="0" y="1.13686838e-13" width="72" height="72"></rect>
                        <g id="w_笔记本" opacity="0.7" transform="translate(5.000000, 0.000000)" fill="#EE396B" fill-rule="nonzero">
                            <path d="M53.1061979,-3.70852316e-15 L8.19427329,-3.70852316e-15 C3.66654585,-3.70852316e-15 3.70852316e-15,3.66654585 3.70852316e-15,8.19427329 L3.70852316e-15,14.2877854 L3.75788329,14.2877854 C4.73649873,14.2877854 5.51939108,15.0706778 5.51939108,16.0492932 L5.51939108,20.1464299 C5.51939108,21.1250453 4.73649873,21.9079377 3.75788329,21.9079377 L3.70852316e-15,21.9079377 L3.70852316e-15,32.1899239 L3.75788329,32.1899239 C4.73649873,32.1899239 5.51939108,32.9728162 5.51939108,33.9514317 L5.51939108,38.0485683 C5.51939108,39.0271838 4.73649873,39.8100761 3.75788329,39.8100761 L3.70852316e-15,39.8100761 L3.70852316e-15,50.0920623 L3.75788329,50.0920623 C4.73649873,50.0920623 5.51939108,50.8749547 5.51939108,51.8535701 L5.51939108,55.9507068 C5.51939108,56.9293222 4.73649873,57.7122146 3.75788329,57.7122146 L3.70852316e-15,57.7122146 L3.70852316e-15,63.8057267 C3.70852316e-15,68.3334542 3.66654585,72 8.19427329,72 L53.1192461,72 C57.6469735,72 61.3135194,68.3334542 61.3135194,63.8057267 L61.3135194,8.19427329 C61.3135194,3.66654585 57.6339253,-3.70852316e-15 53.1061979,-3.70852316e-15 Z M53.5498369,30.8068141 L45.1728887,25.3396158 L36.7959406,30.8068141 L36.7959406,9.49909387 C36.7959406,8.29865893 37.7615078,7.3330917 38.9619427,7.3330917 L51.3838347,7.3330917 C52.5842697,7.3330917 53.5498369,8.29865893 53.5498369,9.49909387 L53.5498369,30.8068141 L53.5498369,30.8068141 Z" id="形状"></path>
                        </g>
                    </g>
                </g>
            </g>
        </g>
    </g>
</svg>