<?xml version="1.0" encoding="UTF-8"?>
<svg width="72px" height="72px" viewBox="0 0 72 72" version="1.1" xmlns="http://www.w3.org/2000/svg" xmlns:xlink="http://www.w3.org/1999/xlink">
    <title>编组 29</title>
    <defs>
        <linearGradient x1="100%" y1="50%" x2="7.84664451%" y2="19.7530864%" id="linearGradient-1">
            <stop stop-color="#EE396B" offset="0%"></stop>
            <stop stop-color="#EE396B" offset="48.5420914%"></stop>
            <stop stop-color="#FF6590" offset="100%"></stop>
        </linearGradient>
    </defs>
    <g id="PC" stroke="none" stroke-width="1" fill="none" fill-rule="evenodd">
        <g id="首页" transform="translate(-485.000000, -952.000000)">
            <g id="编组-14" transform="translate(311.000000, 922.000000)">
                <g id="编组-13" transform="translate(40.000000, 30.000000)">
                    <g id="编组-29" transform="translate(134.000000, 0.000000)">
                        <rect id="矩形" x="0" y="0" width="72" height="72"></rect>
                        <path d="M61,8 C67.0751322,8 72,12.9248678 72,19 L72,53 C72,59.0751322 67.0751322,64 61,64 L11,64 C4.92486775,64 7.43989126e-16,59.0751322 0,53 L0,19 C-7.43989126e-16,12.9248678 4.92486775,8 11,8 L61,8 Z M29,23.8985711 C27.3431458,23.8985711 26,25.2417169 26,26.8985711 L26,26.8985711 L26,45.1014289 C26,45.6451607 26.1477735,46.1786699 26.4275212,46.6449161 C27.2799657,48.0656569 29.1227465,48.5263521 30.5434873,47.6739076 L30.5434873,47.6739076 L45.7125354,38.5724788 C46.1347842,38.3191295 46.4881776,37.9657361 46.7415269,37.5434873 C47.5939714,36.1227465 47.1332762,34.2799657 45.7125354,33.4275212 L45.7125354,33.4275212 L30.5434873,24.3260924 C30.0772411,24.0463446 29.5437318,23.8985711 29,23.8985711 Z" id="形状结合" fill="url(#linearGradient-1)" opacity="0.7"></path>
                    </g>
                </g>
            </g>
        </g>
    </g>
</svg>