<?xml version="1.0" encoding="UTF-8"?>
<svg width="72px" height="72px" viewBox="0 0 72 72" version="1.1" xmlns="http://www.w3.org/2000/svg" xmlns:xlink="http://www.w3.org/1999/xlink">
    <title>编组 33</title>
    <defs>
        <linearGradient x1="97.4251006%" y1="50%" x2="10.0174575%" y2="0%" id="linearGradient-1">
            <stop stop-color="#EE396B" offset="0%"></stop>
            <stop stop-color="#EE396B" offset="48.5420914%"></stop>
            <stop stop-color="#FF6590" offset="100%"></stop>
        </linearGradient>
    </defs>
    <g id="PC" stroke="none" stroke-width="1" fill="none" fill-rule="evenodd">
        <g id="首页" transform="translate(-310.000000, -2474.000000)">
            <g id="编组-19备份-2" transform="translate(310.000000, 2444.000000)">
                <g id="编组-33" transform="translate(0.000000, 30.000000)">
                    <rect id="矩形" x="0" y="0" width="72" height="72"></rect>
                    <g id="搜索" opacity="0.7" transform="translate(3.000000, 2.000000)" fill="#EE396B" fill-rule="nonzero">
                        <path d="M32.3778497,0 C50.2596336,0 64.7556993,14.480435 64.7556993,32.3429597 C64.7556993,40.1691186 61.9730185,47.345976 57.3421487,52.9402963 L57.2014027,53.1090937 L57.2513651,53.1416111 C57.4909141,53.2999903 57.7138939,53.4821052 57.9169253,53.6851962 L64.979902,60.7421718 C66.6403135,62.4011179 66.6413602,65.0919684 64.9824838,66.7523101 L64.9804602,66.7543337 C63.319002,68.4150244 60.6261279,68.4152337 58.9643208,66.754892 L51.9013441,59.6978466 C51.6044756,59.4017738 51.3530568,59.0633977 51.155258,58.6937146 C45.8596653,62.4667807 39.3782338,64.6859195 32.3778497,64.6859195 C14.4960657,64.6859195 0,50.2054845 0,32.3429597 C0,14.480435 14.4960657,0 32.3778497,0 Z M33.2668449,6.4895259 C19.1792007,6.4895259 7.74556317,17.9230936 7.74556317,32.0108077 C7.74556317,33.1337748 8.66435444,34.052566 9.78732154,34.052566 C10.9102189,34.052566 11.8290101,33.1337748 11.8290101,32.0108077 C11.8290101,20.168958 21.4249953,10.5729729 33.2669147,10.5729729 C34.389812,10.5729729 35.3086033,9.65418159 35.3086033,8.53121449 C35.3086033,7.40831717 34.389812,6.4895259 33.2668449,6.4895259 Z" id="形状"></path>
                    </g>
                </g>
            </g>
        </g>
    </g>
</svg>