<?xml version="1.0" encoding="UTF-8"?>
<svg width="73px" height="73px" viewBox="0 0 73 73" version="1.1" xmlns="http://www.w3.org/2000/svg" xmlns:xlink="http://www.w3.org/1999/xlink">
    <title>编组 31</title>
    <defs>
        <linearGradient x1="100%" y1="50%" x2="7.84664451%" y2="2.89792388%" id="linearGradient-1">
            <stop stop-color="#EE396B" offset="0%"></stop>
            <stop stop-color="#EE396B" offset="48.5420914%"></stop>
            <stop stop-color="#FF6590" offset="100%"></stop>
        </linearGradient>
    </defs>
    <g id="PC" stroke="none" stroke-width="1" fill="none" fill-rule="evenodd">
        <g id="首页" transform="translate(-309.000000, -2219.000000)">
            <g id="编组-19备份" transform="translate(309.967949, 2189.000000)">
                <g id="编组-13" transform="translate(0.000000, 30.000000)">
                    <g id="编组-31" transform="translate(0.000000, 0.010189)">
                        <rect id="矩形" x="0" y="0" width="72" height="72"></rect>
                        <path d="M66,49 C68.209139,49 70,50.790861 70,53 L70,65 C70,67.209139 68.209139,69 66,69 L6,69 C3.790861,69 2,67.209139 2,65 L2,53 C2,50.790861 3.790861,49 6,49 L66,49 Z M23.6490721,55.9898111 L12.6490721,55.9898111 C10.9922179,55.9898111 9.64907212,57.3329569 9.64907212,58.9898111 C9.64907212,60.6466654 10.9922179,61.9898111 12.6490721,61.9898111 L12.6490721,61.9898111 L23.6490721,61.9898111 C25.3059264,61.9898111 26.6490721,60.6466654 26.6490721,58.9898111 C26.6490721,57.3329569 25.3059264,55.9898111 23.6490721,55.9898111 L23.6490721,55.9898111 Z M66,26 C68.209139,26 70,27.790861 70,30 L70,42 C70,44.209139 68.209139,46 66,46 L6,46 C3.790861,46 2,44.209139 2,42 L2,30 C2,27.790861 3.790861,26 6,26 L66,26 Z M23.6490721,32.9898111 L12.6490721,32.9898111 C10.9922179,32.9898111 9.64907212,34.3329569 9.64907212,35.9898111 C9.64907212,37.6466654 10.9922179,38.9898111 12.6490721,38.9898111 L12.6490721,38.9898111 L23.6490721,38.9898111 C25.3059264,38.9898111 26.6490721,37.6466654 26.6490721,35.9898111 C26.6490721,34.3329569 25.3059264,32.9898111 23.6490721,32.9898111 L23.6490721,32.9898111 Z M66,3 C68.209139,3 70,4.790861 70,7 L70,19 C70,21.209139 68.209139,23 66,23 L6,23 C3.790861,23 2,21.209139 2,19 L2,7 C2,4.790861 3.790861,3 6,3 L66,3 Z M23.6490721,9.98981114 L12.6490721,9.98981114 C10.9922179,9.98981114 9.64907212,11.3329569 9.64907212,12.9898111 C9.64907212,14.6466654 10.9922179,15.9898111 12.6490721,15.9898111 L12.6490721,15.9898111 L23.6490721,15.9898111 C25.3059264,15.9898111 26.6490721,14.6466654 26.6490721,12.9898111 C26.6490721,11.3329569 25.3059264,9.98981114 23.6490721,9.98981114 L23.6490721,9.98981114 Z" id="形状结合" fill="url(#linearGradient-1)" opacity="0.7"></path>
                    </g>
                </g>
            </g>
        </g>
    </g>
</svg>