<?xml version="1.0" encoding="UTF-8"?>
<svg width="60px" height="60px" viewBox="0 0 60 60" version="1.1" xmlns="http://www.w3.org/2000/svg" xmlns:xlink="http://www.w3.org/1999/xlink">
    <title>形状结合</title>
    <defs>
        <rect id="path-1" x="0" y="0" width="60" height="60"></rect>
        <linearGradient x1="100%" y1="50%" x2="7.84664451%" y2="3.92%" id="linearGradient-3">
            <stop stop-color="#EE396B" offset="0%"></stop>
            <stop stop-color="#EE396B" offset="48.5420914%"></stop>
            <stop stop-color="#FF6590" offset="100%"></stop>
        </linearGradient>
        <path d="M44.2883282,32.6607824 C50.2184063,32.6607824 55,37.4308124 55,43.3152976 C55,49.1998577 50.2122422,54 44.2883282,54 C38.3646483,54 33.5765726,49.22997 33.5765726,43.3451852 C33.5704922,37.4366551 38.3582501,32.6607824 44.2883282,32.6607824 Z M49.6316407,6 C52.571711,6 54.9749532,8.385015 54.9749532,11.3274074 L54.9749532,33.93711 C50.0623517,27.8067824 41.0672034,26.8061099 34.8875158,31.6899225 C28.7078282,36.5737351 27.7214845,45.5326724 32.6341641,51.6688426 C32.7838206,51.8604528 32.9398752,52.0283926 33.0898438,52.22622 L10.3433125,52.22622 C7.40332022,52.22622 5,49.841205 5,46.8988126 L5,11.3274074 C5,8.385015 7.37827344,6 10.3433125,6 L49.6316407,6 Z M50.5430001,38.2395003 C49.6816562,37.7122352 48.5953596,37.9878902 48.0835782,38.8508102 L44.2571953,45.2028602 L40.4305003,38.8508102 L40.3058126,38.6591251 C39.7002424,37.8802499 38.5828128,37.7183775 37.8215,38.3235451 C37.0847658,38.8809225 36.9101406,39.8754528 37.3658203,40.6547025 L42.7091328,49.5354377 L42.8338205,49.7274224 C43.4394687,50.4764849 44.5568203,50.6441251 45.3681486,50.0030025 C45.5431639,49.8892199 45.6741719,49.6972352 45.7988596,49.529595 L51.1421721,40.6485602 L51.2422031,40.4568751 C51.6292968,39.653955 51.3296718,38.6830951 50.5430001,38.2395003 Z M22.8588204,41.5415176 L13.9136877,41.5415176 C12.9527029,41.5415176 12.1160157,42.3204677 12.1160157,43.3152976 C12.1160157,44.2861575 12.9026874,45.0890776 13.9136877,45.0890776 L22.8527343,45.0890776 C23.8140312,45.0890776 24.6504063,44.3101275 24.6504063,43.3152976 C24.6318358,42.3444377 23.8201173,41.5415176 22.8588204,41.5415176 Z M44.2883282,11.3274074 L36.9411955,11.3274074 C36.0299141,11.4110777 35.3681642,12.2142974 35.3681642,13.0771425 L35.3681642,13.2989399 C35.4681172,14.2157175 36.2545548,14.8808101 37.1411796,14.8808101 L39.9748206,14.8808101 L29.9748362,24.7865624 L25.8988438,20.7655949 L25.7242186,20.6277674 C25.0124532,20.07039 24.0012188,20.1543599 23.3458671,20.7655949 L12.6466797,31.3902975 L12.4967111,31.5819825 C11.9413905,32.2771875 12.0163748,33.3018301 12.6466797,33.9429526 L12.8213049,34.0807801 C13.5329923,34.6381576 14.5443047,34.5541876 15.1996564,33.9429526 L24.6504063,24.5348774 L28.7513674,28.6158449 L28.901336,28.7536724 C29.6130234,29.3107501 30.6240237,29.2267802 31.2796875,28.6158449 L42.5281094,17.4337649 L42.5281094,20.4598276 C42.652797,21.4306875 43.5394218,22.1258924 44.5068048,22.0121098 C45.4181641,21.8979527 46.079836,21.1252198 46.079836,20.2620002 L46.079836,12.87939 C45.9549142,12.0223127 45.1996096,11.3274074 44.2883282,11.3274074 Z" id="path-4"></path>
        <filter x="-12.0%" y="-12.5%" width="124.0%" height="125.0%" filterUnits="objectBoundingBox" id="filter-5">
            <feOffset dx="0" dy="0" in="SourceAlpha" result="shadowOffsetOuter1"></feOffset>
            <feGaussianBlur stdDeviation="2" in="shadowOffsetOuter1" result="shadowBlurOuter1"></feGaussianBlur>
            <feColorMatrix values="0 0 0 0 0.964705882   0 0 0 0 0.305882353   0 0 0 0 0.490196078  0 0 0 0.155594406 0" type="matrix" in="shadowBlurOuter1"></feColorMatrix>
        </filter>
    </defs>
    <g id="PC" stroke="none" stroke-width="1" fill="none" fill-rule="evenodd">
        <g id="产品_亮点" transform="translate(-985.000000, -1711.000000)">
            <g id="编组-11" transform="translate(350.000000, 1421.000000)">
                <g id="编组-19备份-10" transform="translate(620.000000, 260.000000)">
                    <g id="形状结合" transform="translate(15.000000, 30.000000)">
                        <mask id="mask-2" fill="white">
                            <use xlink:href="#path-1"></use>
                        </mask>
                        <g id="蒙版"></g>
                        <g id="Fill-1" opacity="0.7" mask="url(#mask-2)">
                            <use fill="black" fill-opacity="1" filter="url(#filter-5)" xlink:href="#path-4"></use>
                            <use fill="url(#linearGradient-3)" fill-rule="evenodd" xlink:href="#path-4"></use>
                        </g>
                    </g>
                </g>
            </g>
        </g>
    </g>
</svg>