<?xml version="1.0" encoding="UTF-8"?>
<svg width="60px" height="60px" viewBox="0 0 60 60" version="1.1" xmlns="http://www.w3.org/2000/svg" xmlns:xlink="http://www.w3.org/1999/xlink">
    <title>形状结合</title>
    <defs>
        <rect id="path-1" x="0" y="0" width="60" height="60"></rect>
        <linearGradient x1="100%" y1="50%" x2="7.84664451%" y2="0%" id="linearGradient-3">
            <stop stop-color="#EE396B" offset="0%"></stop>
            <stop stop-color="#EE396B" offset="48.5420914%"></stop>
            <stop stop-color="#FF6590" offset="100%"></stop>
        </linearGradient>
        <path d="M35.1567115,13.3273586 L47.4635188,13.3340835 C49.463628,13.3340835 51.3818391,14.1523312 52.7954121,15.6021257 C54.0909321,16.9317366 54.8637031,18.6954069 54.9840865,20.5589528 L55,21.070316 L55,47.2704881 C55,51.3976151 51.8431979,54.7702817 47.8702789,54.9884766 L47.4543968,54.999929 L12.5499977,54.999929 C10.5381698,54.9973322 8.61296732,54.1819477 7.21131285,52.7386783 C5.91159809,51.4010109 5.13290116,49.6430667 5.01584693,47.7818513 L5,47.2704881 L5,21.070316 C5,19.0182049 5.79327877,17.0477255 7.20898241,15.5976646 C8.49018689,14.2764433 10.2141067,13.4753077 12.050087,13.3476666 L12.5499977,13.3340835 L26.913577,13.3340835 L35.1567115,13.3273586 Z M25.3135029,25.6453519 C24.9569469,25.4242273 24.506175,25.4224295 24.1477547,25.6408908 C23.84633,25.8261268 23.6397873,26.1327449 23.5817928,26.4817769 L23.5636154,26.697708 L23.5636154,43.0091282 C23.5636154,43.4453183 23.7886019,43.8500144 24.1477547,44.0658789 C24.442188,44.2451223 24.8029387,44.2778815 25.1249377,44.1545684 L25.3135029,44.0635484 L38.6044845,35.9182254 C38.9709615,35.6903758 39.1925522,35.2882766 39.18874,34.8568139 C39.1902218,34.4996587 39.0388769,34.1586833 38.7728083,33.9204467 L38.6044845,33.7953358 L25.3135029,25.6453519 Z M41.6385062,5.26812834 C42.4112106,5.8775028 42.7041125,6.91527709 42.3636032,7.83859392 L42.2567363,8.08854931 L39.4271933,13.3340835 L35.1567115,13.3273586 L39.0591184,6.09989252 C39.2495479,5.70897933 39.564489,5.3924402 39.9544034,5.19994658 L40.1887117,5.1068625 C40.6727755,4.94999119 41.2007846,5.00878464 41.6385062,5.26812834 Z M22.9045029,5.8590591 L23.0296138,6.07725404 L26.9091824,13.3226311 L22.6545475,13.3182366 L19.8341266,8.07270238 C19.3339495,7.09758339 19.6024151,5.87490603 20.4523567,5.24548987 C21.3067593,4.74997362 22.3544546,5.02962536 22.9045029,5.8590591 Z" id="path-4"></path>
        <filter x="-12.0%" y="-12.0%" width="124.0%" height="124.0%" filterUnits="objectBoundingBox" id="filter-5">
            <feOffset dx="0" dy="0" in="SourceAlpha" result="shadowOffsetOuter1"></feOffset>
            <feGaussianBlur stdDeviation="2" in="shadowOffsetOuter1" result="shadowBlurOuter1"></feGaussianBlur>
            <feColorMatrix values="0 0 0 0 0.964705882   0 0 0 0 0.305882353   0 0 0 0 0.490196078  0 0 0 0.155594406 0" type="matrix" in="shadowBlurOuter1"></feColorMatrix>
        </filter>
    </defs>
    <g id="PC" stroke="none" stroke-width="1" fill="none" fill-rule="evenodd">
        <g id="产品_亮点" transform="translate(-365.000000, -1971.000000)">
            <g id="编组-11" transform="translate(350.000000, 1421.000000)">
                <g id="编组-19备份-8" transform="translate(0.000000, 520.000000)">
                    <g id="形状结合" transform="translate(15.000000, 30.000000)">
                        <mask id="mask-2" fill="white">
                            <use xlink:href="#path-1"></use>
                        </mask>
                        <g id="蒙版"></g>
                        <g id="Fill-1" opacity="0.7" mask="url(#mask-2)">
                            <use fill="black" fill-opacity="1" filter="url(#filter-5)" xlink:href="#path-4"></use>
                            <use fill="url(#linearGradient-3)" fill-rule="evenodd" xlink:href="#path-4"></use>
                        </g>
                    </g>
                </g>
            </g>
        </g>
    </g>
</svg>