<?xml version="1.0" encoding="UTF-8"?>
<svg width="60px" height="60px" viewBox="0 0 60 60" version="1.1" xmlns="http://www.w3.org/2000/svg" xmlns:xlink="http://www.w3.org/1999/xlink">
    <title>形状结合</title>
    <defs>
        <rect id="path-1" x="0" y="0" width="60" height="60"></rect>
        <linearGradient x1="100%" y1="50%" x2="7.84664451%" y2="0%" id="linearGradient-3">
            <stop stop-color="#EE396B" offset="0%"></stop>
            <stop stop-color="#EE396B" offset="48.5420914%"></stop>
            <stop stop-color="#FF6590" offset="100%"></stop>
        </linearGradient>
        <path d="M35.4322823,54.4037452 L35.0393377,54.4929176 C33.3808894,54.8314188 31.6926559,55.0012187 30.00015,55.0000045 C22.1504136,55.0054912 14.7556336,51.3185992 10.03566,45.0465006 C11.0251015,41.7856343 12.5321215,38.6535523 14.5536682,35.6463482 C20.3785009,44.3965978 27.3429217,50.667964 35.4322823,54.4037452 Z M45.3177865,49.7571969 L45.2751229,49.7929635 C45.119178,49.9138132 44.9620734,50.0327708 44.803565,50.1500804 C34.585602,47.5501642 26.0857798,40.8214613 19.2715056,29.8251166 C22.1318589,26.8740039 25.2834722,24.2198885 28.6785549,21.9036639 C35.3821724,28.2892269 40.9213604,37.5465569 45.3213876,49.7571969 L45.3177865,49.7571969 Z M47.2320943,11.8893754 C52.1990774,16.6031235 55.0081001,23.152505 55,30.0001655 C55,35.1642923 53.4321714,39.9643441 50.7499188,43.9500033 C46.4715348,33.1143642 41.1786237,24.4499911 34.8822331,17.9928948 C38.7848845,15.7734721 42.8103386,13.7774381 46.9393085,12.0143144 L47.2320943,11.8893754 Z M10.5713659,28.9573182 L10.03566,29.6501287 C8.43488993,31.7627399 7.02467177,34.0132295 5.82136291,36.3749864 C5.27393826,34.2942966 4.99787607,32.1516561 5,30.0001655 C5,26.7643236 5.61439257,23.6751494 6.73213008,20.8357921 C7.88679389,23.6002592 9.16780055,26.3103439 10.5713659,28.9573182 Z M22.8785635,17.2786 L22.2822496,17.7215934 C19.9667575,19.4424807 17.7623494,21.3080825 15.6821479,23.3072292 C14.1607846,20.2214119 12.742876,16.8749742 11.4249431,13.2679163 C11.6643231,13.0001549 11.9072432,12.7428916 12.1535202,12.4928304 C15.9751168,13.5036953 19.5464081,15.1001318 22.8785635,17.2786 Z M30.00015,5 C33.6536557,5 37.1286334,5.78585597 40.2571144,7.19302238 C36.493196,8.93991067 32.8260795,10.888032 29.2715118,13.0285363 C26.2323864,10.7170724 22.9043203,8.8128354 19.3714202,7.3644092 C22.6966176,5.80184719 26.3260754,4.99453468 30.00015,5 Z" id="path-4"></path>
        <filter x="-12.0%" y="-12.0%" width="124.0%" height="124.0%" filterUnits="objectBoundingBox" id="filter-5">
            <feOffset dx="0" dy="0" in="SourceAlpha" result="shadowOffsetOuter1"></feOffset>
            <feGaussianBlur stdDeviation="2" in="shadowOffsetOuter1" result="shadowBlurOuter1"></feGaussianBlur>
            <feComposite in="shadowBlurOuter1" in2="SourceAlpha" operator="out" result="shadowBlurOuter1"></feComposite>
            <feColorMatrix values="0 0 0 0 0.964705882   0 0 0 0 0.305882353   0 0 0 0 0.490196078  0 0 0 0.155594406 0" type="matrix" in="shadowBlurOuter1"></feColorMatrix>
        </filter>
    </defs>
    <g id="PC" stroke="none" stroke-width="1" fill="none" fill-rule="evenodd">
        <g id="产品_亮点" transform="translate(-985.000000, -1971.000000)">
            <g id="编组-11" transform="translate(350.000000, 1421.000000)">
                <g id="编组-19备份-11" transform="translate(620.000000, 520.000000)">
                    <g id="形状结合" transform="translate(15.000000, 30.000000)">
                        <mask id="mask-2" fill="white">
                            <use xlink:href="#path-1"></use>
                        </mask>
                        <g id="蒙版"></g>
                        <g id="Fill-1" mask="url(#mask-2)">
                            <use fill="black" fill-opacity="1" filter="url(#filter-5)" xlink:href="#path-4"></use>
                            <use fill-opacity="0.7" fill="url(#linearGradient-3)" fill-rule="evenodd" xlink:href="#path-4"></use>
                        </g>
                    </g>
                </g>
            </g>
        </g>
    </g>
</svg>