<?xml version="1.0" encoding="UTF-8"?>
<svg width="60px" height="60px" viewBox="0 0 60 60" version="1.1" xmlns="http://www.w3.org/2000/svg" xmlns:xlink="http://www.w3.org/1999/xlink">
    <title>形状结合</title>
    <defs>
        <rect id="path-1" x="0" y="0" width="60" height="60"></rect>
        <linearGradient x1="100%" y1="50%" x2="7.84664451%" y2="0.113654269%" id="linearGradient-3">
            <stop stop-color="#EE396B" offset="0%"></stop>
            <stop stop-color="#EE396B" offset="48.5420914%"></stop>
            <stop stop-color="#FF6590" offset="100%"></stop>
        </linearGradient>
        <path d="M47.8164295,5 C48.804615,5 49.7360106,5.18999552 50.60999,5.57005615 C51.4843174,5.95011678 52.2444386,6.46338306 52.8906322,7.10929823 C53.5368257,7.75556137 54.0498136,8.50614806 54.4298743,9.36140627 C54.8099349,10.2166645 55,11.1382471 55,12.1264326 L55,47.8164295 C55,48.804615 54.8099349,49.726476 54.4298743,50.5814559 C54.0498136,51.4367141 53.5368257,52.1873008 52.8906322,52.8334943 C52.2444386,53.4797575 51.4843174,53.9927454 50.60999,54.372806 C49.7360106,54.7528666 48.804615,54.9431405 47.8164295,54.9431405 L37.1549667,54.9431405 L37.1549667,33.5632163 L40.6899273,33.5632163 C41.6781824,33.5632163 42.523906,33.2116898 43.2268894,32.5086368 C43.9302208,31.805375 44.2817473,30.9596514 44.2817473,29.9713963 C44.2817473,28.9832108 43.9302208,28.1374872 43.2268894,27.4344341 C42.523906,26.7311723 41.6781824,26.3796458 40.6899273,26.3796458 L37.1549667,26.3796458 C37.2311041,24.9352623 37.5350274,23.9660764 38.0673628,23.4721577 C38.5993503,22.9778909 39.3216812,22.7307576 40.2337989,22.7307576 L43.939477,22.7307576 C44.9657312,22.7307576 45.744852,22.3602315 46.2771875,21.6191794 C46.8091749,20.8780577 47.0753078,20.0608682 47.0753078,19.1675412 C47.0753078,18.2744927 46.8187095,17.4573032 46.3057216,16.7159727 C45.7924553,15.974851 45.0037999,15.6043249 43.939477,15.6043249 L37.7821607,15.6043249 C36.490052,15.6043249 35.3591263,15.8229242 34.3899404,16.2600531 C33.4207545,16.6971819 32.603565,17.2958418 31.9383023,18.0558935 C31.2733875,18.8160147 30.7791208,19.6903421 30.4561284,20.6785276 C30.1329273,21.6667131 29.9714659,22.7307576 29.9714659,23.8712178 L29.9714659,26.3796458 L26.4367837,26.3796458 C25.4485286,26.3796458 24.602805,26.7311723 23.899752,27.4344341 C23.1964902,28.1374872 22.8449637,28.9832108 22.8449637,29.9713963 C22.8449637,30.9596514 23.1964902,31.805375 23.899752,32.5086368 C24.602805,33.2116898 25.4485286,33.5632163 26.4367837,33.5632163 L29.9714659,33.5632163 L29.9714659,54.9431405 L12.1264326,54.9431405 C11.1382471,54.9431405 10.2166645,54.7528666 9.36140627,54.372806 C8.50614806,53.9927454 7.75556137,53.4797575 7.10936782,52.8334943 C6.46338306,52.1873008 5.95011678,51.4367141 5.57005615,50.5814559 C5.18999552,49.726476 5,48.804615 5,47.8164295 L5,12.1264326 C5,11.1382471 5.18999552,10.2166645 5.57005615,9.36140627 C5.95011678,8.50614806 6.46338306,7.75556137 7.10936782,7.10929823 C7.75556137,6.46338306 8.50614806,5.95011678 9.36140627,5.57005615 C10.2166645,5.18999552 11.1382471,5 12.1264326,5 L47.8164295,5 Z" id="path-4"></path>
        <filter x="-12.0%" y="-12.0%" width="124.0%" height="124.0%" filterUnits="objectBoundingBox" id="filter-5">
            <feOffset dx="0" dy="0" in="SourceAlpha" result="shadowOffsetOuter1"></feOffset>
            <feGaussianBlur stdDeviation="2" in="shadowOffsetOuter1" result="shadowBlurOuter1"></feGaussianBlur>
            <feColorMatrix values="0 0 0 0 0.964705882   0 0 0 0 0.305882353   0 0 0 0 0.490196078  0 0 0 0.155594406 0" type="matrix" in="shadowBlurOuter1"></feColorMatrix>
        </filter>
    </defs>
    <g id="PC" stroke="none" stroke-width="1" fill="none" fill-rule="evenodd">
        <g id="产品_亮点" transform="translate(-365.000000, -2231.000000)">
            <g id="编组-11" transform="translate(350.000000, 1421.000000)">
                <g id="编组-19备份-12" transform="translate(0.000000, 780.000000)">
                    <g id="形状结合" transform="translate(15.000000, 30.000000)">
                        <mask id="mask-2" fill="white">
                            <use xlink:href="#path-1"></use>
                        </mask>
                        <g id="蒙版"></g>
                        <g id="Fill-1" opacity="0.7" mask="url(#mask-2)">
                            <use fill="black" fill-opacity="1" filter="url(#filter-5)" xlink:href="#path-4"></use>
                            <use fill="url(#linearGradient-3)" fill-rule="evenodd" xlink:href="#path-4"></use>
                        </g>
                    </g>
                </g>
            </g>
        </g>
    </g>
</svg>