<?xml version="1.0" encoding="UTF-8"?>
<svg width="60px" height="60px" viewBox="0 0 60 60" version="1.1" xmlns="http://www.w3.org/2000/svg" xmlns:xlink="http://www.w3.org/1999/xlink">
    <title>形状结合</title>
    <defs>
        <rect id="path-1" x="0" y="0" width="60" height="60"></rect>
        <linearGradient x1="100%" y1="50%" x2="7.84664451%" y2="0%" id="linearGradient-3">
            <stop stop-color="#EE396B" offset="0%"></stop>
            <stop stop-color="#EE396B" offset="48.5420914%"></stop>
            <stop stop-color="#FF6590" offset="100%"></stop>
        </linearGradient>
        <path d="M33.4012722,11.0229368 L37.9891301,6.46010452 C39.940636,4.51329849 43.1000833,4.51329849 45.0518945,6.46010452 L53.5397124,14.9980346 C55.4867625,16.9497847 55.4867625,20.109232 53.5397124,22.0610432 L49.0269922,26.6111796 L33.4012722,11.0229368 Z M30.063716,45.6245069 L45.1643875,30.4486977 L44.4393785,31.1737678 L46.8270007,28.7487293 L31.2510876,13.2355632 L30.0012742,14.3730668 L14.4878029,29.9987869 L14.3128071,29.823791 L14.4754122,29.986152 L8.45004912,35.9991244 C7.52971862,37.0339011 7.01065174,38.3643457 6.98751835,39.7491751 L5,49.8747638 C5.1425847,52.5361413 7.18876053,54.704149 9.83774734,55.000061 L20.2506417,53.0122985 C21.6650136,53.0068051 23.0290901,52.4870058 24.088404,51.5497678 L30.0012742,45.5994814 L30.063716,45.6245069 Z M53.452245,37.7241795 L47.202018,31.4737084 L31.6762171,47.1745661 L34.1012556,49.6747424 L40.1266187,43.6493793 C40.5114631,43.2166201 41.1039586,43.0321023 41.6664235,43.169926 C42.2288884,43.3076887 42.6690332,43.7454531 42.8099088,44.3069413 C42.9510897,44.8687348 42.7698679,45.4623901 42.3392451,45.849615 L36.2514401,51.8497083 L37.8265249,53.4498187 C39.9024873,55.5091177 43.2507861,55.5091177 45.3268095,53.4498187 L53.4398543,45.2370989 C55.5039142,43.1600989 55.5094076,39.8078326 53.452245,37.7241795 Z M22.3132978,6.54757192 C20.2373355,4.48851708 16.8890366,4.48851708 14.8130743,6.54757192 L6.55005922,14.8356736 C4.49765752,16.9145047 4.49765752,20.257066 6.55005922,22.3358971 L8.00013825,23.7486209 L8.12508297,23.6608483 L14.1003949,17.4982108 C14.7165122,16.8997335 15.6969041,16.8997335 16.3130213,17.4982108 C16.6069802,17.7914372 16.7719658,18.1894048 16.7719658,18.604524 C16.7719658,19.0195822 16.6069802,19.4175498 16.3130213,19.7108372 L10.2628768,25.8110329 L10.2001298,25.8861096 L13.0002466,28.598759 L12.8378856,28.4361538 L28.4385801,12.7854082 L22.3132978,6.54757192 Z" id="path-4"></path>
        <filter x="-12.0%" y="-12.0%" width="124.0%" height="124.0%" filterUnits="objectBoundingBox" id="filter-5">
            <feOffset dx="0" dy="0" in="SourceAlpha" result="shadowOffsetOuter1"></feOffset>
            <feGaussianBlur stdDeviation="2" in="shadowOffsetOuter1" result="shadowBlurOuter1"></feGaussianBlur>
            <feColorMatrix values="0 0 0 0 0.964705882   0 0 0 0 0.305882353   0 0 0 0 0.490196078  0 0 0 0.155594406 0" type="matrix" in="shadowBlurOuter1"></feColorMatrix>
        </filter>
    </defs>
    <g id="PC" stroke="none" stroke-width="1" fill="none" fill-rule="evenodd">
        <g id="产品_亮点" transform="translate(-365.000000, -2491.000000)">
            <g id="编组-11" transform="translate(350.000000, 1421.000000)">
                <g id="编组-19备份-14" transform="translate(0.000000, 1040.000000)">
                    <g id="形状结合" transform="translate(15.000000, 30.000000)">
                        <mask id="mask-2" fill="white">
                            <use xlink:href="#path-1"></use>
                        </mask>
                        <g id="蒙版"></g>
                        <g id="Fill-1" opacity="0.7" mask="url(#mask-2)">
                            <use fill="black" fill-opacity="1" filter="url(#filter-5)" xlink:href="#path-4"></use>
                            <use fill="url(#linearGradient-3)" fill-rule="evenodd" xlink:href="#path-4"></use>
                        </g>
                    </g>
                </g>
            </g>
        </g>
    </g>
</svg>