<?xml version="1.0" encoding="UTF-8"?>
<svg width="60px" height="60px" viewBox="0 0 60 60" version="1.1" xmlns="http://www.w3.org/2000/svg" xmlns:xlink="http://www.w3.org/1999/xlink">
    <title>形状结合</title>
    <defs>
        <rect id="path-1" x="0" y="0" width="60" height="60"></rect>
        <linearGradient x1="100%" y1="50%" x2="7.84664451%" y2="8.70568613%" id="linearGradient-3">
            <stop stop-color="#EE396B" offset="0%"></stop>
            <stop stop-color="#EE396B" offset="48.5420914%"></stop>
            <stop stop-color="#FF6590" offset="100%"></stop>
        </linearGradient>
        <path d="M23.9300195,46.1388685 L35.2282304,52.6620928 L14.7846375,52.6620928 C12.9833673,52.6620928 11.523304,51.2017907 11.523304,49.4004408 C11.523304,47.5991706 12.9833673,46.1388685 14.7846375,46.1388685 L23.9300195,46.1388685 Z M43.1225577,21.154705 L53.2453243,26.9990719 C54.4829308,27.7136025 55.2453282,29.0341118 55.2453282,30.4631758 L55.2453282,42.1523542 C55.2453282,43.581394 54.4829564,44.9018848 53.2453829,45.6164242 L43.1226163,51.4610194 C41.8849751,52.1755979 40.3601174,52.1755923 39.1224815,51.4610047 L28.9999199,45.6164291 C27.7623607,44.9018858 27,43.581403 27,42.1523737 L27,30.4631562 C27,29.0341027 27.7623863,27.7136014 28.9999785,26.999067 L39.1225401,21.1547197 C40.3601463,20.4401772 41.8849463,20.4401716 43.1225577,21.154705 Z M47.4004408,7 C48.2655219,7 49.0950888,7.34367545 49.706554,7.95522027 C50.3184174,8.5670836 50.6620928,9.39665052 50.6620928,10.261652 L50.6620928,16.7845804 C50.6620928,18.5859325 49.2018084,20.0462168 47.4004564,20.0462168 C46.8279261,20.0462168 46.2654821,19.8955122 45.7696546,19.6092499 L42.8772595,17.9393473 C41.6396316,17.2248121 40.1148134,17.224833 38.877205,17.9394021 L25.9295051,25.4151325 C24.6921785,26.1295389 23.9298519,27.4496698 23.9295798,28.8784292 L23.9276758,38.8772165 C23.9264933,41.0860579 22.1357556,42.8764546 19.926914,42.8772165 L8.261652,42.8772165 C7.39665052,42.8772165 6.5670836,42.5337799 5.95522027,41.9219166 C5.34367545,41.3104514 5,40.4808844 5,39.615883 L5,10.261652 C5,8.46038177 6.46038177,7 8.261652,7 L47.4004408,7 Z M50.546875,30.3515625 C50.0625,30.3515625 50.0625,30.3515625 49.7773437,30.6835937 C49.5329241,30.968192 49.5329241,30.968192 49.498007,31.4967315 L49.4921875,31.6796875 L49.4921875,38.4921875 L45.03125,31.7421875 C44.84375,31.4453125 44.84375,31.4453125 44.6679687,31.171875 C44.4921875,30.8984375 44.4921875,30.8984375 44.3242187,30.7265625 C44.15625,30.5546875 44.15625,30.5546875 43.9335937,30.453125 C43.7109375,30.3515625 43.7109375,30.3515625 43.3984375,30.3515625 C43,30.3515625 43,30.3515625 42.65625,30.5742187 C42.3125,30.796875 42.3125,30.796875 42.1640625,31.1484375 C42.0598958,31.4153646 42.0598958,31.4153646 42.0425347,31.8504774 L42.0390625,32.03125 L42.0390625,40.8671875 C42.0390625,41.515625 42.0390625,41.515625 42.3359375,41.8554687 C42.6328125,42.1953125 42.6328125,42.1953125 43.125,42.1953125 C43.6015625,42.1953125 43.6015625,42.1953125 43.90625,41.859375 C44.1674107,41.5714286 44.1674107,41.5714286 44.2047194,41.0481505 L44.2109375,40.8671875 L44.2109375,34.15625 L48.5625,40.828125 C48.75,41.1015625 48.75,41.1015625 48.9375,41.3632812 C49.125,41.625 49.125,41.625 49.34375,41.8203125 C49.5625,42.015625 49.5625,42.015625 49.8125,42.1054687 C50.0625,42.1953125 50.0625,42.1953125 50.375,42.1953125 C51.5514706,42.1953125 51.5514706,42.1953125 51.6206747,40.8596724 L51.625,40.6875 L51.625,31.6796875 C51.625,31.015625 51.625,31.015625 51.3359375,30.6835937 C51.046875,30.3515625 51.046875,30.3515625 50.546875,30.3515625 Z M38.8561458,30.546875 L32.7311458,30.546875 C32.2389583,30.546875 32.2389583,30.546875 31.9225521,30.6914062 C31.6061458,30.8359375 31.6061458,30.8359375 31.4577083,31.1523437 C31.3389583,31.4054687 31.3389583,31.4054687 31.3152083,31.7760937 L31.3092708,31.96875 L31.3092708,40.578125 C31.3092708,41.328125 31.3092708,41.328125 31.6413021,41.6640625 C31.9318294,41.9580078 31.9318294,41.9580078 32.5483455,41.994751 L32.7311458,42 L39.0358333,42 C39.5827083,42 39.5827083,42 39.8600521,41.7460937 C40.1373958,41.4921875 40.1373958,41.4921875 40.1373958,41.0859375 C40.1373958,40.6640625 40.1373958,40.6640625 39.8600521,40.4101562 C39.6223289,40.1925223 39.6223289,40.1925223 39.1865827,40.1614318 L39.0358333,40.15625 L33.6295833,40.15625 L33.6295833,36.8984375 L38.4420833,36.8984375 C38.9811458,36.8984375 38.9811458,36.8984375 39.2389583,36.6523437 C39.4967708,36.40625 39.4967708,36.40625 39.4967708,36.015625 C39.4967708,35.625 39.4967708,35.625 39.2350521,35.3867187 C39.0107217,35.1824777 39.0107217,35.1824777 38.5883684,35.1533004 L38.4420833,35.1484375 L33.6295833,35.1484375 L33.6295833,32.3359375 L38.8561458,32.3359375 C39.4108333,32.3359375 39.4108333,32.3359375 39.6803646,32.0898437 C39.9498958,31.84375 39.9498958,31.84375 39.9498958,31.4375 C39.9498958,31.0390625 39.9498958,31.0390625 39.6803646,30.7929687 C39.4493378,30.5820312 39.4493378,30.5820312 39.0088085,30.5518973 L38.8561458,30.546875 Z" id="path-4"></path>
        <filter x="-11.9%" y="-13.1%" width="123.9%" height="126.3%" filterUnits="objectBoundingBox" id="filter-5">
            <feOffset dx="0" dy="0" in="SourceAlpha" result="shadowOffsetOuter1"></feOffset>
            <feGaussianBlur stdDeviation="2" in="shadowOffsetOuter1" result="shadowBlurOuter1"></feGaussianBlur>
            <feColorMatrix values="0 0 0 0 0.964705882   0 0 0 0 0.305882353   0 0 0 0 0.490196078  0 0 0 0.155594406 0" type="matrix" in="shadowBlurOuter1"></feColorMatrix>
        </filter>
    </defs>
    <g id="PC" stroke="none" stroke-width="1" fill="none" fill-rule="evenodd">
        <g id="产品_亮点" transform="translate(-985.000000, -2491.000000)">
            <g id="编组-11" transform="translate(350.000000, 1421.000000)">
                <g id="编组-19备份-15" transform="translate(620.000000, 1040.000000)">
                    <g id="形状结合" transform="translate(15.000000, 30.000000)">
                        <mask id="mask-2" fill="white">
                            <use xlink:href="#path-1"></use>
                        </mask>
                        <g id="蒙版"></g>
                        <g opacity="0.7" mask="url(#mask-2)">
                            <use fill="black" fill-opacity="1" filter="url(#filter-5)" xlink:href="#path-4"></use>
                            <use fill="url(#linearGradient-3)" fill-rule="evenodd" xlink:href="#path-4"></use>
                        </g>
                    </g>
                </g>
            </g>
        </g>
    </g>
</svg>