<?xml version="1.0" encoding="UTF-8"?>
<svg width="60px" height="60px" viewBox="0 0 60 60" version="1.1" xmlns="http://www.w3.org/2000/svg" xmlns:xlink="http://www.w3.org/1999/xlink">
    <title>形状结合</title>
    <defs>
        <rect id="path-1" x="0" y="0" width="60" height="60"></rect>
        <linearGradient x1="100%" y1="50%" x2="7.84664451%" y2="0.00749612001%" id="linearGradient-3">
            <stop stop-color="#EE396B" offset="0%"></stop>
            <stop stop-color="#EE396B" offset="48.5420914%"></stop>
            <stop stop-color="#FF6590" offset="100%"></stop>
        </linearGradient>
        <path d="M53.0379183,20.2640243 C49.1153445,11.015671 40.0456963,5.00640904 29.9997546,5 C23.3671874,4.98497211 17.0034952,7.61998426 12.3228423,12.3193824 C7.62257891,16.999747 4.98612481,23.3634392 5,29.9963909 C4.98506739,36.6308806 7.62152148,42.996111 12.3228423,47.6767639 C17.0068597,52.3713556 23.3687255,55.0051181 29.9997546,54.9962518 C36.6338598,55.0123278 42.9990902,52.3773156 47.6805121,47.6767639 C52.3807755,42.9957265 55.016076,36.6304961 55,29.9963909 C55,26.6213721 54.3401878,23.3472894 53.0379183,20.2640243 Z M30.517221,28.0970596 L31.2532863,28.4756185 C33.7150727,29.7534711 35.0902085,30.6561293 36.0101701,31.5866651 C36.9966534,32.5900673 37.4930674,33.6771023 37.6631209,35.215178 C37.829906,36.7465247 37.3784807,38.2222123 36.3541223,39.4824731 C35.282468,40.7528275 33.8318703,41.6461611 32.2152566,42.0309685 L31.9268674,42.1038348 L31.9268674,44.9963785 C31.9268674,46.0587082 31.0658333,46.9201268 30.0035998,46.9201268 C28.9412701,46.9201268 28.0798515,46.0587082 28.0798515,44.9963785 L28.0798515,42.1215227 L27.7880978,42.0482718 C26.7111564,41.7955468 25.6841063,41.363732 24.7498214,40.7708038 C24.0213503,40.3344709 23.3604584,39.7937412 22.7881981,39.1666869 C22.0901039,38.3649649 22.1742174,37.1494044 22.9755549,36.4513103 C23.7772769,35.7533123 24.9928374,35.8370413 25.6908354,36.6387633 C25.8507953,36.8227556 26.2394478,37.1629587 26.7915208,37.5102755 C27.7985759,38.1388678 28.8747483,38.454654 29.9963901,38.454654 C31.3332663,38.454654 32.5554597,37.9789079 33.2674927,37.1873757 C33.6719104,36.7757482 33.8803197,36.210986 33.8401375,35.6353611 C33.7083436,34.4303749 32.6910988,33.5588627 29.489498,31.8957222 L28.750068,31.5171633 C26.2882817,30.2393107 24.9097813,29.3404016 23.9931843,28.4094812 C23.0033364,27.4061752 22.510287,26.3194286 22.343598,24.7776038 C22.1700839,23.2466416 22.6215091,21.7709541 23.6458675,20.5137694 C24.63908,19.2918643 26.1110185,18.3853609 27.7880978,17.9618133 L28.0731225,17.888947 L28.0731225,15.0001523 C28.134261,13.9806965 28.9787607,13.1853191 29.9997546,13.1853191 C31.0212291,13.1853191 31.8657289,13.9806965 31.9268674,15.0001523 L31.9268674,17.8750082 L32.2187172,17.94451 C33.3020032,18.2013686 34.3192481,18.6320298 35.2568975,19.2223625 C36.3297053,19.8922907 36.944455,20.5137694 37.2185209,20.8264794 C37.8918135,21.629355 37.7986638,22.8234785 37.0086697,23.5121519 C36.2189639,24.2008254 35.0229177,24.1306506 34.3192481,23.3540185 C33.9910612,23.016507 33.6200965,22.7235997 33.2152942,22.4825063 C32.2595724,21.8666993 31.1473514,21.5373588 30.0103289,21.5347633 C28.6769133,21.5347633 27.4512592,22.0105094 26.7396108,22.8054061 C26.335193,23.2174182 26.1257263,23.7817958 26.1632169,24.3578052 C26.2950108,25.5624069 27.3122556,26.4339191 30.517221,28.0970596 Z" id="path-4"></path>
        <filter x="-12.0%" y="-12.0%" width="124.0%" height="124.0%" filterUnits="objectBoundingBox" id="filter-5">
            <feOffset dx="0" dy="0" in="SourceAlpha" result="shadowOffsetOuter1"></feOffset>
            <feGaussianBlur stdDeviation="2" in="shadowOffsetOuter1" result="shadowBlurOuter1"></feGaussianBlur>
            <feColorMatrix values="0 0 0 0 0.964705882   0 0 0 0 0.305882353   0 0 0 0 0.490196078  0 0 0 0.155594406 0" type="matrix" in="shadowBlurOuter1"></feColorMatrix>
        </filter>
    </defs>
    <g id="PC" stroke="none" stroke-width="1" fill="none" fill-rule="evenodd">
        <g id="产品_亮点" transform="translate(-985.000000, -2751.000000)">
            <g id="编组-11" transform="translate(350.000000, 1421.000000)">
                <g id="编组-19备份-17" transform="translate(620.000000, 1300.000000)">
                    <g id="形状结合" transform="translate(15.000000, 30.000000)">
                        <mask id="mask-2" fill="white">
                            <use xlink:href="#path-1"></use>
                        </mask>
                        <g id="蒙版"></g>
                        <g id="Fill-1" opacity="0.7" mask="url(#mask-2)">
                            <use fill="black" fill-opacity="1" filter="url(#filter-5)" xlink:href="#path-4"></use>
                            <use fill="url(#linearGradient-3)" fill-rule="evenodd" xlink:href="#path-4"></use>
                        </g>
                    </g>
                </g>
            </g>
        </g>
    </g>
</svg>