<?xml version="1.0" encoding="UTF-8"?>
<svg width="60px" height="60px" viewBox="0 0 60 60" version="1.1" xmlns="http://www.w3.org/2000/svg" xmlns:xlink="http://www.w3.org/1999/xlink">
    <title>形状结合</title>
    <defs>
        <rect id="path-1" x="0" y="0" width="60" height="60"></rect>
        <linearGradient x1="100%" y1="50%" x2="7.84664451%" y2="29.3939753%" id="linearGradient-3">
            <stop stop-color="#EE396B" offset="0%"></stop>
            <stop stop-color="#EE396B" offset="48.5420914%"></stop>
            <stop stop-color="#FF6590" offset="100%"></stop>
        </linearGradient>
        <path d="M15.6364241,30.2903702 L15.6364241,30.1605776 L9.97492062,30.1605776 L18.9822925,21.1710036 L28.0071326,30.1605776 L22.3168229,30.1605776 L22.3207121,30.2903702 C22.3207121,39.2667606 29.1614895,46.6738399 37.902816,47.5740168 C38.4891571,47.6334749 39.078003,47.6630721 39.6674422,47.6626107 C39.903297,47.6626107 40.1376357,47.6538436 40.3711833,47.6450765 C40.441452,47.6427693 40.5140936,47.642242 40.5843623,47.6383528 C40.8274021,47.6252351 41.0691895,47.6061848 41.3102518,47.583509 C41.3761699,47.5768513 41.442813,47.5719734 41.5087311,47.5644587 C41.7621201,47.5374323 42.0155091,47.5065167 42.2660636,47.4686798 C42.2982316,47.4635382 42.3311906,47.4591876 42.3633586,47.4532549 C50.6559151,46.1575698 57,38.9863452 57,30.3305143 C57,20.7592795 49.2399954,13 39.6671785,13 C38.8051023,13 37.9592419,13.065918 37.1301247,13.1858889 C41.5913923,17.554278 44.3635759,23.6406233 44.3635759,30.3758 L44.365092,30.5055927 L50.025343,30.5055927 L41.0177075,39.4946393 L31.9936584,30.5055927 L37.6831771,30.5055927 L37.680079,30.3758 C37.680079,21.3994097 30.8385105,13.9931213 22.0963929,13.0921534 C21.5103815,13.0326954 20.9217333,13.0030981 20.3325578,13.0036255 C20.0961757,13.0036255 19.8624303,13.0116016 19.6288826,13.0218848 C19.5578229,13.0231372 19.4866974,13.0249829 19.4156377,13.0278174 C19.1725979,13.0409351 18.9308105,13.0599854 18.6890231,13.0833863 C18.623105,13.089319 18.557187,13.0944606 18.4920599,13.1017115 C18.2381436,13.128738 17.9844909,13.1596535 17.7342001,13.1977541 C17.7017684,13.2028958 17.6696004,13.2080374 17.6374324,13.212388 C9.34434856,14.5088641 3,21.6805501 3,30.3364469 C3,39.9068908 10.7600705,47.6661702 20.3328215,47.6661702 C21.195425,47.6661702 22.0407581,47.6002522 22.8699412,47.4794903 C18.4086077,43.1121559 15.6364241,37.0248218 15.6364241,30.2903702" id="path-4"></path>
        <filter x="-11.1%" y="-17.3%" width="122.2%" height="134.6%" filterUnits="objectBoundingBox" id="filter-5">
            <feOffset dx="0" dy="0" in="SourceAlpha" result="shadowOffsetOuter1"></feOffset>
            <feGaussianBlur stdDeviation="2" in="shadowOffsetOuter1" result="shadowBlurOuter1"></feGaussianBlur>
            <feColorMatrix values="0 0 0 0 0.964705882   0 0 0 0 0.305882353   0 0 0 0 0.490196078  0 0 0 0.155594406 0" type="matrix" in="shadowBlurOuter1"></feColorMatrix>
        </filter>
    </defs>
    <g id="PC" stroke="none" stroke-width="1" fill="none" fill-rule="evenodd">
        <g id="产品_亮点" transform="translate(-365.000000, -3011.000000)">
            <g id="编组-11" transform="translate(350.000000, 1421.000000)">
                <g id="编组-19备份-18" transform="translate(0.000000, 1560.000000)">
                    <g id="形状结合" transform="translate(15.000000, 30.000000)">
                        <mask id="mask-2" fill="white">
                            <use xlink:href="#path-1"></use>
                        </mask>
                        <g id="蒙版"></g>
                        <g id="Fill-1" opacity="0.7" mask="url(#mask-2)">
                            <use fill="black" fill-opacity="1" filter="url(#filter-5)" xlink:href="#path-4"></use>
                            <use fill="url(#linearGradient-3)" fill-rule="evenodd" xlink:href="#path-4"></use>
                        </g>
                    </g>
                </g>
            </g>
        </g>
    </g>
</svg>