<?xml version="1.0" encoding="UTF-8"?>
<svg width="60px" height="60px" viewBox="0 0 60 60" version="1.1" xmlns="http://www.w3.org/2000/svg" xmlns:xlink="http://www.w3.org/1999/xlink">
    <title>形状结合</title>
    <defs>
        <rect id="path-1" x="0" y="0" width="60" height="60"></rect>
        <linearGradient x1="99.7115484%" y1="50%" x2="8.08982855%" y2="0%" id="linearGradient-3">
            <stop stop-color="#EE396B" offset="0%"></stop>
            <stop stop-color="#EE396B" offset="48.5420914%"></stop>
            <stop stop-color="#FF6590" offset="100%"></stop>
        </linearGradient>
        <path d="M20.1276901,1.71237561 C16.7997384,4.5282206 13.7278791,7.34437808 10.6559417,10.4162374 C7.58376985,13.4884092 4.63980051,16.6881585 1.82395553,20.0161102 C-0.607985175,22.8322677 -0.607985175,27.0561524 1.82395553,29.8723099 C4.63980051,33.2002616 7.58376985,36.5281352 10.6559417,39.4721827 C13.5996766,42.4162302 16.7997384,45.3601995 19.9998002,48.1760445 C22.8156452,50.6079852 27.0398423,50.6079852 29.8556873,48.1760445 C33.1836391,45.3601995 36.3837008,42.4162302 39.3276702,39.4721827 C42.3996076,36.4003234 45.3435769,33.2002616 48.0316101,30.0001998 C50.4635508,27.1843548 50.4635508,22.9600796 48.0316101,20.1443127 C45.3435769,16.9442509 42.3996076,13.7441891 39.3276702,10.6722517 C36.2558109,7.6003924 33.0557491,4.65634494 29.7278755,1.84026558 C27.1677323,-0.591675122 23.0716595,-0.591675122 20.1276901,1.71237561 Z" id="path-4"></path>
        <filter x="-12.0%" y="-12.0%" width="124.1%" height="124.0%" filterUnits="objectBoundingBox" id="filter-5">
            <feOffset dx="0" dy="0" in="SourceAlpha" result="shadowOffsetOuter1"></feOffset>
            <feGaussianBlur stdDeviation="2" in="shadowOffsetOuter1" result="shadowBlurOuter1"></feGaussianBlur>
            <feComposite in="shadowBlurOuter1" in2="SourceAlpha" operator="out" result="shadowBlurOuter1"></feComposite>
            <feColorMatrix values="0 0 0 0 0.964705882   0 0 0 0 0.305882353   0 0 0 0 0.490196078  0 0 0 0.155594406 0" type="matrix" in="shadowBlurOuter1"></feColorMatrix>
        </filter>
    </defs>
    <g id="PC" stroke="none" stroke-width="1" fill="none" fill-rule="evenodd">
        <g id="产品_亮点" transform="translate(-985.000000, -3271.000000)">
            <g id="编组-11" transform="translate(350.000000, 1421.000000)">
                <g id="编组-19备份-21" transform="translate(620.000000, 1820.000000)">
                    <g id="形状结合" transform="translate(15.000000, 30.000000)">
                        <mask id="mask-2" fill="white">
                            <use xlink:href="#path-1"></use>
                        </mask>
                        <g id="蒙版"></g>
                        <g id="编组" mask="url(#mask-2)">
                            <g transform="translate(5.000000, 5.000000)">
                                <path d="M45.9788138,32.3877641 C45.8980315,34.3547381 45.7757561,36.3239702 45.5996694,38.3201573 C45.2157651,42.0322477 42.2717176,45.1041852 38.5595491,45.3601995 C36.5729509,45.535453 34.6130042,45.6573543 32.667513,45.7380924 C34.9885879,43.6805162 37.2235393,41.5763694 39.3276702,39.4721827 C41.3756285,37.4242765 43.366712,35.3193914 45.2630044,33.1955134 Z M10.6559417,39.4721827 C12.7364529,41.5529148 14.9450015,43.6336079 17.191096,45.6690575 C15.6912709,45.5925637 14.1900098,45.4913122 12.7036656,45.3601995 C8.99188765,44.9759827 5.91995022,42.0322477 5.66393591,38.3201573 C5.53246021,36.8735768 5.43097467,35.4119691 5.35435806,33.9404932 C7.07632822,35.8655723 8.84383293,37.7356476 10.6559417,39.4721827 Z M33.4340528,5.07592202 C35.1481797,5.15588656 36.8538644,5.26917227 38.5595491,5.42423164 C42.2717176,5.80844843 45.3435769,8.75241776 45.5996694,12.4642738 C45.7556771,14.2328376 45.8694459,15.9802303 45.9495424,17.7236586 C43.849129,15.3368305 41.6241577,12.9687393 39.3276702,10.6722517 C37.7917405,9.13632205 36.2237602,7.63234536 34.6237782,6.16034116 Z M10.6559417,10.4162374 C8.86479671,12.2073823 7.11722972,14.0418928 5.41322521,15.9198926 C5.48097261,14.8057976 5.56374662,13.6947454 5.66393591,12.5923981 C5.91995022,8.88030774 8.86399768,5.80844843 12.7036656,5.42423164 C13.8600897,5.32220094 15.0165138,5.23825731 16.1729335,5.1699926 C14.2973754,6.86469448 12.4766722,8.5955531 10.6559417,10.4162374 Z" id="形状结合" fill="#FF7DA0" fill-rule="evenodd" opacity="0.4"></path>
                                <g id="Fill-3" fill="none">
                                    <use fill="black" fill-opacity="1" filter="url(#filter-5)" xlink:href="#path-4"></use>
                                    <use fill-opacity="0.7" fill="url(#linearGradient-3)" fill-rule="evenodd" xlink:href="#path-4"></use>
                                </g>
                                <path d="M27.8076509,14.5123102 C27.9358534,14.7683245 28.0637433,15.0243388 28.0637433,15.2804313 L28.0639097,18.0119094 C32.4746873,18.8663394 35.8715941,22.803616 35.8715941,27.4400567 C35.8715941,32.6881549 31.5198194,37.040242 26.2717212,37.040242 C21.0236231,37.040242 16.6718484,32.6881549 16.6718484,27.4400567 C16.6718484,26.6722481 17.1839552,26.1601413 17.9517638,26.1601413 C18.7198848,26.1601413 19.2316791,26.6722481 19.2316791,27.4400567 C19.2316791,31.2801152 22.4317409,34.4801769 26.2717212,34.4801769 C30.1117798,34.4801769 33.3118415,31.2801152 33.3118415,27.4400567 C33.3118415,24.2176564 31.0579655,21.4457451 28.0634559,20.6377962 L28.0637433,22.5761753 C28.0637433,23.3442963 27.5516366,23.8560906 26.783828,23.8560906 C26.5278137,23.8560906 26.1439094,23.7282788 26.0157069,23.6003888 L21.6639323,19.8882202 C21.1518255,19.3761135 21.0236231,18.6083049 21.5357298,18.0962763 C21.7763015,17.8557046 25.518295,14.791548 25.9709863,14.4210187 L26.0157069,14.3844202 L26.0157069,14.3844202 C26.5278137,13.8723135 27.4237466,14.0002035 27.8076509,14.5123102 Z" id="形状结合" fill="#FFFFFF" fill-rule="evenodd"></path>
                            </g>
                        </g>
                    </g>
                </g>
            </g>
        </g>
    </g>
</svg>