<?xml version="1.0" encoding="UTF-8"?>
<svg width="60px" height="60px" viewBox="0 0 60 60" version="1.1" xmlns="http://www.w3.org/2000/svg" xmlns:xlink="http://www.w3.org/1999/xlink">
    <title>Chunked Uploads	</title>
    <defs>
        <rect id="path-1" x="0" y="0" width="60" height="60"></rect>
        <linearGradient x1="100%" y1="50%" x2="7.84664451%" y2="8.34714479%" id="linearGradient-3">
            <stop stop-color="#EE396B" offset="0%"></stop>
            <stop stop-color="#EE396B" offset="48.5420914%"></stop>
            <stop stop-color="#FF6590" offset="100%"></stop>
        </linearGradient>
        <path d="M41.1106513,44.43461 C42.8225491,44.43461 44.2229658,45.7441179 44.2229658,47.3447442 L44.2229658,47.3447442 L44.2229658,49.7258468 L44.2171312,49.8961821 C44.1220132,51.4183391 42.7608844,52.635981 41.1101258,52.635981 L41.1101258,52.635981 L18.9324384,52.635981 C17.2210662,52.635981 15.8206494,51.3264731 15.8206494,49.7258468 L15.8206494,49.7258468 L15.8206494,47.3447442 C15.8206494,45.7441179 17.2210662,44.43461 18.9324384,44.43461 L18.9324384,44.43461 Z M11.0891853,16.000896 C13.1573616,16.000896 13.918789,17.2884648 13.918789,19.1513081 L13.918789,19.1513081 L13.918789,24.8396799 C13.918789,26.5310837 15.319337,27.9152104 17.0307093,27.9152104 L17.0307093,27.9152104 L43.0123804,27.9152104 C44.7238841,27.9152104 46.1243008,26.5310837 46.1243008,24.8396799 L46.1243008,24.8396799 L46.1243008,19.1271358 C46.1243008,16.8969787 47.4286852,16.000896 48.9897688,16.000896 L48.9897688,16.000896 L50.8510356,16.000896 C53.1325588,16.000896 55,17.8457413 55,20.1011216 L55,20.1011216 L55,45.7303239 C55,47.9857042 53.1325588,49.8310751 50.8510356,49.8310751 L50.8510356,49.8310751 L47.7454211,49.8310751 C46.5260338,49.8310751 46.096056,49.3009924 46.096056,48.1560926 L46.096056,48.1560926 L46.096056,45.7036555 C46.096056,44.0117262 44.6956393,42.6277309 42.9837415,42.6277309 L42.9837415,42.6277309 L17.0162585,42.6277309 C15.3048862,42.6277309 13.9044695,44.0122517 13.9044695,45.7036555 L13.9044695,45.7036555 L13.9044695,47.7219109 C13.9044695,49.0721438 13.4195785,49.8310751 12.0652731,49.8310751 L12.0652731,49.8310751 L9.1489644,49.8310751 C6.86744123,49.8310751 5,47.9857042 5,45.7303239 L5,45.7303239 L5,20.1011216 C5,17.8457413 6.86744123,16.000896 9.1489644,16.000896 L9.1489644,16.000896 Z M41.088581,7 C42.8010042,7 44.2008954,8.40041671 44.2008954,10.1112635 L44.2008954,10.1112635 L44.2008954,23.1519544 C44.2008954,24.8633267 42.8004787,26.2637434 41.0891064,26.2637434 L41.0891064,26.2637434 L18.9108936,26.2637434 C17.1989958,26.2637434 15.7991046,24.8638522 15.7991046,23.1519544 L15.7991046,23.1519544 L15.7991046,10.1112635 C15.7991046,8.40041671 17.1989958,7 18.9108936,7 L18.9108936,7 Z" id="path-4"></path>
        <filter x="-12.0%" y="-13.1%" width="124.0%" height="126.3%" filterUnits="objectBoundingBox" id="filter-5">
            <feOffset dx="0" dy="0" in="SourceAlpha" result="shadowOffsetOuter1"></feOffset>
            <feGaussianBlur stdDeviation="2" in="shadowOffsetOuter1" result="shadowBlurOuter1"></feGaussianBlur>
            <feColorMatrix values="0 0 0 0 0.964705882   0 0 0 0 0.305882353   0 0 0 0 0.490196078  0 0 0 0.155594406 0" type="matrix" in="shadowBlurOuter1"></feColorMatrix>
        </filter>
    </defs>
    <g id="PC" stroke="none" stroke-width="1" fill="none" fill-rule="evenodd">
        <g id="产品_亮点" transform="translate(-365.000000, -795.000000)">
            <g id="编组-9" transform="translate(350.000000, 505.000000)">
                <g id="编组-19备份-2" transform="translate(0.000000, 260.000000)">
                    <g id="Chunked-Uploads-" transform="translate(15.000000, 30.000000)">
                        <mask id="mask-2" fill="white">
                            <use xlink:href="#path-1"></use>
                        </mask>
                        <g id="蒙版"></g>
                        <g id="形状结合" opacity="0.7" mask="url(#mask-2)">
                            <use fill="black" fill-opacity="1" filter="url(#filter-5)" xlink:href="#path-4"></use>
                            <use fill="url(#linearGradient-3)" fill-rule="evenodd" xlink:href="#path-4"></use>
                        </g>
                    </g>
                </g>
            </g>
        </g>
    </g>
</svg>