<?xml version="1.0" encoding="UTF-8"?>
<svg width="60px" height="60px" viewBox="0 0 60 60" version="1.1" xmlns="http://www.w3.org/2000/svg" xmlns:xlink="http://www.w3.org/1999/xlink">
    <title>形状结合</title>
    <defs>
        <rect id="path-1" x="0" y="0" width="60" height="60"></rect>
        <linearGradient x1="99.9972104%" y1="50%" x2="7.84899636%" y2="0%" id="linearGradient-3">
            <stop stop-color="#EE396B" offset="0%"></stop>
            <stop stop-color="#EE396B" offset="48.5420914%"></stop>
            <stop stop-color="#FF6590" offset="100%"></stop>
        </linearGradient>
        <path d="M44.2864516,5.00899695 C44.4812459,5.00899695 44.6746454,5.01443696 44.8667197,5.0245498 C43.3841068,6.33196636 42.448564,8.24447978 42.448564,10.3765466 C42.448564,14.3153952 45.6415729,17.5086831 49.5807005,17.5086831 C51.7373171,17.5086831 53.6699865,16.5513105 54.977961,15.0392657 L54.9941851,15.3798071 L54.9941851,15.3798071 L55,15.7233823 L55,44.2870095 C55,50.1086338 50.3569899,54.8463512 44.5713396,54.9976663 L44.2858936,55.0013949 L15.7143853,55.0013949 C9.89276109,55.0013949 5.1550437,50.3580472 5.00372858,44.5724525 L5,44.2870095 L5,15.7233823 C5,9.90148356 9.64328013,5.16403179 15.4289391,5.01272531 L15.7143853,5.00899695 L44.2864516,5.00899695 Z M50.8952309,22.1468525 C50.1972354,21.4489266 49.0657823,21.4489266 48.3677868,22.1468525 L48.3677868,22.1468525 L30.5904794,39.9234081 L21.7283899,31.0607329 C21.0304641,30.3627373 19.899011,30.3627373 19.2010155,31.0607329 C19.177749,31.0839994 19.155258,31.1077475 19.1335426,31.1319452 L19.1335426,31.1319452 L9.04297611,41.2253281 C8.34498054,41.9233237 8.34498054,43.0550557 9.04297611,43.7529815 C9.74041372,44.4509771 10.872355,44.4509771 11.5703505,43.7529815 L11.5703505,43.7529815 L20.4674794,34.8554081 L29.0404314,43.4304419 C29.1110246,43.5434848 29.1954491,43.6503623 29.2937049,43.7486574 C29.6513199,44.1062724 30.1227167,44.2806649 30.5908752,44.2718307 C31.0595181,44.2807202 31.5309894,44.1063291 31.8886611,43.7486574 C31.9872085,43.6500706 32.0718423,43.5428504 32.1425627,43.4294354 L32.1425627,43.4294354 L50.8952309,24.6745756 C51.5931567,23.97658 51.5931567,22.844848 50.8952309,22.1468525 Z M49.6008565,5 C52.5603632,5 54.9594091,7.39904591 54.9594091,10.3585527 C54.9594091,13.3180594 52.5603632,15.7171054 49.6008565,15.7171054 C46.6413497,15.7171054 44.2423038,13.3180594 44.2423038,10.3585527 C44.2423038,7.39904591 46.6413497,5 49.6008565,5 Z" id="path-4"></path>
        <filter x="-12.0%" y="-12.0%" width="124.0%" height="124.0%" filterUnits="objectBoundingBox" id="filter-5">
            <feOffset dx="0" dy="0" in="SourceAlpha" result="shadowOffsetOuter1"></feOffset>
            <feGaussianBlur stdDeviation="2" in="shadowOffsetOuter1" result="shadowBlurOuter1"></feGaussianBlur>
            <feColorMatrix values="0 0 0 0 0.964705882   0 0 0 0 0.305882353   0 0 0 0 0.490196078  0 0 0 0.155594406 0" type="matrix" in="shadowBlurOuter1"></feColorMatrix>
        </filter>
    </defs>
    <g id="PC" stroke="none" stroke-width="1" fill="none" fill-rule="evenodd">
        <g id="产品_亮点" transform="translate(-365.000000, -1451.000000)">
            <g id="编组-11" transform="translate(350.000000, 1421.000000)">
                <g id="形状结合" transform="translate(15.000000, 30.000000)">
                    <mask id="mask-2" fill="white">
                        <use xlink:href="#path-1"></use>
                    </mask>
                    <g id="蒙版"></g>
                    <g opacity="0.7" mask="url(#mask-2)">
                        <use fill="black" fill-opacity="1" filter="url(#filter-5)" xlink:href="#path-4"></use>
                        <use fill="url(#linearGradient-3)" fill-rule="evenodd" xlink:href="#path-4"></use>
                    </g>
                </g>
            </g>
        </g>
    </g>
</svg>