<?xml version="1.0" encoding="UTF-8"?>
<svg width="60px" height="60px" viewBox="0 0 60 60" version="1.1" xmlns="http://www.w3.org/2000/svg" xmlns:xlink="http://www.w3.org/1999/xlink">
    <title>形状结合</title>
    <defs>
        <rect id="path-1" x="0" y="0" width="60" height="60"></rect>
        <linearGradient x1="96.8691693%" y1="50%" x2="10.4861449%" y2="0%" id="linearGradient-3">
            <stop stop-color="#EE396B" offset="0%"></stop>
            <stop stop-color="#EE396B" offset="48.5420914%"></stop>
            <stop stop-color="#FF6590" offset="100%"></stop>
        </linearGradient>
        <path d="M29.0636118,4 C42.3538255,4 53.1273118,14.7738388 53.1273118,28.0636118 C53.1273118,33.4038613 51.3878478,38.3377654 48.4445912,42.3296528 L53.8794483,47.765889 C55.8343866,49.7210916 55.8343866,52.729021 53.8794483,54.5337963 C51.9241576,56.4887346 48.9163163,56.4887346 47.1114529,54.5337963 L41.3417761,48.7636708 C37.7472537,50.9003143 33.5487484,52.1273118 29.0636118,52.1273118 C15.7738388,52.1273118 5,41.3538255 5,28.0636118 C5,14.7738388 15.7738388,4 29.0636118,4 Z M29.0636118,16.7837662 C22.8340527,16.7837662 17.7837662,21.8340527 17.7837662,28.0636118 C17.7837662,34.293259 22.8340527,39.3434574 29.0636118,39.3434574 C35.293259,39.3434574 40.3434574,34.293259 40.3434574,28.0636118 C40.3434574,21.8340527 35.293259,16.7837662 29.0636118,16.7837662 Z" id="path-4"></path>
        <filter x="-11.9%" y="-11.5%" width="123.8%" height="123.1%" filterUnits="objectBoundingBox" id="filter-5">
            <feOffset dx="0" dy="0" in="SourceAlpha" result="shadowOffsetOuter1"></feOffset>
            <feGaussianBlur stdDeviation="2" in="shadowOffsetOuter1" result="shadowBlurOuter1"></feGaussianBlur>
            <feColorMatrix values="0 0 0 0 0.964705882   0 0 0 0 0.305882353   0 0 0 0 0.490196078  0 0 0 0.155594406 0" type="matrix" in="shadowBlurOuter1"></feColorMatrix>
        </filter>
    </defs>
    <g id="PC" stroke="none" stroke-width="1" fill="none" fill-rule="evenodd">
        <g id="产品_亮点" transform="translate(-985.000000, -1451.000000)">
            <g id="编组-11" transform="translate(350.000000, 1421.000000)">
                <g id="编组-19备份-9" transform="translate(620.000000, 0.000000)">
                    <g id="形状结合" transform="translate(15.000000, 30.000000)">
                        <mask id="mask-2" fill="white">
                            <use xlink:href="#path-1"></use>
                        </mask>
                        <g id="蒙版"></g>
                        <g opacity="0.7" mask="url(#mask-2)">
                            <use fill="black" fill-opacity="1" filter="url(#filter-5)" xlink:href="#path-4"></use>
                            <use fill="url(#linearGradient-3)" fill-rule="evenodd" xlink:href="#path-4"></use>
                        </g>
                    </g>
                </g>
            </g>
        </g>
    </g>
</svg>